<?xml version="1.0" encoding="UTF-8" standalone="no"?>
<!DOCTYPE svg PUBLIC "-//W3C//DTD SVG 1.1//EN"
 "http://www.w3.org/Graphics/SVG/1.1/DTD/svg11.dtd">
<!-- Generated by graphviz version 2.47.3 (20210619.1520)
 -->
<!-- Title: dependencies Pages: 1 -->
<svg width="761pt" height="247pt"
 viewBox="0.00 0.00 761.00 246.80" xmlns="http://www.w3.org/2000/svg" xmlns:xlink="http://www.w3.org/1999/xlink">
<g id="graph0" class="graph" transform="scale(1 1) rotate(0) translate(4 242.8)">
<title>dependencies</title>
<polygon fill="white" stroke="transparent" points="-4,4 -4,-242.8 757,-242.8 757,4 -4,4"/>
<text text-anchor="middle" x="376.5" y="-8.2" font-family="sans-serif" font-size="14.00">dependencies</text>
<g id="clust1" class="cluster">
<title>cluster_AppModule</title>
<polygon fill="none" stroke="black" stroke-dasharray="1,5" points="8,-32.8 8,-230.8 745,-230.8 745,-32.8 8,-32.8"/>
</g>
<g id="clust7" class="cluster">
<title>cluster_AppModule_imports</title>
<polygon fill="none" stroke="black" points="593,-40.8 593,-92.8 737,-92.8 737,-40.8 593,-40.8"/>
</g>
<g id="clust9" class="cluster">
<title>cluster_AppModule_bootstrap</title>
<polygon fill="none" stroke="black" points="321,-170.8 321,-222.8 445,-222.8 445,-170.8 321,-170.8"/>
</g>
<g id="clust2" class="cluster">
<title>cluster_AppModule_declarations</title>
<polygon fill="none" stroke="black" points="16,-40.8 16,-92.8 585,-92.8 585,-40.8 16,-40.8"/>
</g>
<!-- AppComponent -->
<g id="node1" class="node">
<title>AppComponent</title>
<polygon fill="#ffffb3" stroke="black" points="576.94,-84.8 471.06,-84.8 471.06,-48.8 576.94,-48.8 576.94,-84.8"/>
<text text-anchor="middle" x="524" y="-62.6" font-family="Times,serif" font-size="14.00">AppComponent</text>
</g>
<!-- AppModule -->
<g id="node5" class="node">
<title>AppModule</title>
<polygon fill="#8dd3c7" stroke="black" points="424.66,-149.8 421.66,-153.8 400.66,-153.8 397.66,-149.8 341.34,-149.8 341.34,-113.8 424.66,-113.8 424.66,-149.8"/>
<text text-anchor="middle" x="383" y="-127.6" font-family="Times,serif" font-size="14.00">AppModule</text>
</g>
<!-- AppComponent&#45;&gt;AppModule -->
<g id="edge1" class="edge">
<title>AppComponent&#45;&gt;AppModule</title>
<path fill="none" stroke="black" d="M524,-84.82C524,-102.17 524,-125.8 524,-125.8 524,-125.8 434.92,-125.8 434.92,-125.8"/>
<polygon fill="black" stroke="black" points="434.92,-122.3 424.92,-125.8 434.92,-129.3 434.92,-122.3"/>
</g>
<!-- EditModalComponent -->
<g id="node2" class="node">
<title>EditModalComponent</title>
<polygon fill="#ffffb3" stroke="black" points="453.72,-84.8 312.28,-84.8 312.28,-48.8 453.72,-48.8 453.72,-84.8"/>
<text text-anchor="middle" x="383" y="-62.6" font-family="Times,serif" font-size="14.00">EditModalComponent</text>
</g>
<!-- EditModalComponent&#45;&gt;AppModule -->
<g id="edge2" class="edge">
<title>EditModalComponent&#45;&gt;AppModule</title>
<path fill="none" stroke="black" d="M383,-84.91C383,-84.91 383,-103.79 383,-103.79"/>
<polygon fill="black" stroke="black" points="379.5,-103.79 383,-113.79 386.5,-103.79 379.5,-103.79"/>
</g>
<!-- TodoItemComponent -->
<g id="node3" class="node">
<title>TodoItemComponent</title>
<polygon fill="#ffffb3" stroke="black" points="294.04,-84.8 157.96,-84.8 157.96,-48.8 294.04,-48.8 294.04,-84.8"/>
<text text-anchor="middle" x="226" y="-62.6" font-family="Times,serif" font-size="14.00">TodoItemComponent</text>
</g>
<!-- TodoItemComponent&#45;&gt;AppModule -->
<g id="edge3" class="edge">
<title>TodoItemComponent&#45;&gt;AppModule</title>
<path fill="none" stroke="black" d="M226,-84.82C226,-102.17 226,-125.8 226,-125.8 226,-125.8 331.34,-125.8 331.34,-125.8"/>
<polygon fill="black" stroke="black" points="331.34,-129.3 341.34,-125.8 331.34,-122.3 331.34,-129.3"/>
</g>
<!-- TodosComponent -->
<g id="node4" class="node">
<title>TodosComponent</title>
<polygon fill="#ffffb3" stroke="black" points="140.33,-84.8 23.67,-84.8 23.67,-48.8 140.33,-48.8 140.33,-84.8"/>
<text text-anchor="middle" x="82" y="-62.6" font-family="Times,serif" font-size="14.00">TodosComponent</text>
</g>
<!-- TodosComponent&#45;&gt;AppModule -->
<g id="edge4" class="edge">
<title>TodosComponent&#45;&gt;AppModule</title>
<path fill="none" stroke="black" d="M82,-85.08C82,-106.12 82,-137.8 82,-137.8 82,-137.8 331.15,-137.8 331.15,-137.8"/>
<polygon fill="black" stroke="black" points="331.15,-141.3 341.15,-137.8 331.15,-134.3 331.15,-141.3"/>
</g>
<!-- AppComponent  -->
<g id="node7" class="node">
<title>AppComponent </title>
<polygon fill="#80b1d3" stroke="black" points="437.44,-214.8 328.56,-214.8 328.56,-178.8 437.44,-178.8 437.44,-214.8"/>
<text text-anchor="middle" x="383" y="-192.6" font-family="Times,serif" font-size="14.00">AppComponent </text>
</g>
<!-- AppModule&#45;&gt;AppComponent  -->
<g id="edge6" class="edge">
<title>AppModule&#45;&gt;AppComponent </title>
<path fill="none" stroke="black" stroke-dasharray="1,5" d="M383,-149.91C383,-149.91 383,-168.79 383,-168.79"/>
<polygon fill="black" stroke="black" points="379.5,-168.79 383,-178.79 386.5,-168.79 379.5,-168.79"/>
</g>
<!-- AppRoutingModule -->
<g id="node6" class="node">
<title>AppRoutingModule</title>
<polygon fill="#8dd3c7" stroke="black" points="729.27,-84.8 726.27,-88.8 705.27,-88.8 702.27,-84.8 600.73,-84.8 600.73,-48.8 729.27,-48.8 729.27,-84.8"/>
<text text-anchor="middle" x="665" y="-62.6" font-family="Times,serif" font-size="14.00">AppRoutingModule</text>
</g>
<!-- AppRoutingModule&#45;&gt;AppModule -->
<g id="edge5" class="edge">
<title>AppRoutingModule&#45;&gt;AppModule</title>
<path fill="none" stroke="black" d="M665,-85.08C665,-106.12 665,-137.8 665,-137.8 665,-137.8 434.91,-137.8 434.91,-137.8"/>
<polygon fill="black" stroke="black" points="434.91,-134.3 424.91,-137.8 434.91,-141.3 434.91,-134.3"/>
</g>
</g>
</svg>
