<?xml version="1.0" encoding="UTF-8" standalone="no"?>
<!DOCTYPE svg PUBLIC "-//W3C//DTD SVG 1.1//EN"
 "http://www.w3.org/Graphics/SVG/1.1/DTD/svg11.dtd">
<!-- Generated by graphviz version 2.47.3 (20210619.1520)
 -->
<!-- Title: dependencies Pages: 1 -->
<svg width="761pt" height="247pt"
 viewBox="0.00 0.00 761.00 246.80" xmlns="http://www.w3.org/2000/svg" xmlns:xlink="http://www.w3.org/1999/xlink">
<g id="graph0" class="graph" transform="scale(1 1) rotate(0) translate(4 242.8)">
<title>dependencies</title>
<polygon fill="white" stroke="transparent" points="-4,4 -4,-242.8 757,-242.8 757,4 -4,4"/>
<text text-anchor="middle" x="376.5" y="-8.2" font-family="sans-serif" font-size="14.00">dependencies</text>
<g id="clust1" class="cluster">
<title>cluster_AppModule</title>
<polygon fill="none" stroke="black" stroke-dasharray="1,5" points="8,-32.8 8,-230.8 745,-230.8 745,-32.8 8,-32.8"/>
</g>
<g id="clust2" class="cluster">
<title>cluster_AppModule_declarations</title>
<polygon fill="none" stroke="black" points="168,-40.8 168,-92.8 737,-92.8 737,-40.8 168,-40.8"/>
</g>
<g id="clust7" class="cluster">
<title>cluster_AppModule_imports</title>
<polygon fill="none" stroke="black" points="16,-40.8 16,-92.8 160,-92.8 160,-40.8 16,-40.8"/>
</g>
<g id="clust9" class="cluster">
<title>cluster_AppModule_bootstrap</title>
<polygon fill="none" stroke="black" points="316,-170.8 316,-222.8 440,-222.8 440,-170.8 316,-170.8"/>
</g>
<!-- AppComponent -->
<g id="node1" class="node">
<title>AppComponent</title>
<polygon fill="#ffffb3" stroke="black" points="728.94,-84.8 623.06,-84.8 623.06,-48.8 728.94,-48.8 728.94,-84.8"/>
<text text-anchor="middle" x="676" y="-62.6" font-family="Times,serif" font-size="14.00">AppComponent</text>
</g>
<!-- AppModule -->
<g id="node5" class="node">
<title>AppModule</title>
<polygon fill="#8dd3c7" stroke="black" points="419.66,-149.8 416.66,-153.8 395.66,-153.8 392.66,-149.8 336.34,-149.8 336.34,-113.8 419.66,-113.8 419.66,-149.8"/>
<text text-anchor="middle" x="378" y="-127.6" font-family="Times,serif" font-size="14.00">AppModule</text>
</g>
<!-- AppComponent&#45;&gt;AppModule -->
<g id="edge1" class="edge">
<title>AppComponent&#45;&gt;AppModule</title>
<path fill="none" stroke="black" d="M676,-85.08C676,-106.12 676,-137.8 676,-137.8 676,-137.8 429.75,-137.8 429.75,-137.8"/>
<polygon fill="black" stroke="black" points="429.75,-134.3 419.75,-137.8 429.75,-141.3 429.75,-134.3"/>
</g>
<!-- EditModalComponent -->
<g id="node2" class="node">
<title>EditModalComponent</title>
<polygon fill="#ffffb3" stroke="black" points="605.72,-84.8 464.28,-84.8 464.28,-48.8 605.72,-48.8 605.72,-84.8"/>
<text text-anchor="middle" x="535" y="-62.6" font-family="Times,serif" font-size="14.00">EditModalComponent</text>
</g>
<!-- EditModalComponent&#45;&gt;AppModule -->
<g id="edge2" class="edge">
<title>EditModalComponent&#45;&gt;AppModule</title>
<path fill="none" stroke="black" d="M535,-84.82C535,-102.17 535,-125.8 535,-125.8 535,-125.8 429.66,-125.8 429.66,-125.8"/>
<polygon fill="black" stroke="black" points="429.66,-122.3 419.66,-125.8 429.66,-129.3 429.66,-122.3"/>
</g>
<!-- TodoItemComponent -->
<g id="node3" class="node">
<title>TodoItemComponent</title>
<polygon fill="#ffffb3" stroke="black" points="446.04,-84.8 309.96,-84.8 309.96,-48.8 446.04,-48.8 446.04,-84.8"/>
<text text-anchor="middle" x="378" y="-62.6" font-family="Times,serif" font-size="14.00">TodoItemComponent</text>
</g>
<!-- TodoItemComponent&#45;&gt;AppModule -->
<g id="edge3" class="edge">
<title>TodoItemComponent&#45;&gt;AppModule</title>
<path fill="none" stroke="black" d="M378,-84.91C378,-84.91 378,-103.79 378,-103.79"/>
<polygon fill="black" stroke="black" points="374.5,-103.79 378,-113.79 381.5,-103.79 374.5,-103.79"/>
</g>
<!-- TodosComponent -->
<g id="node4" class="node">
<title>TodosComponent</title>
<polygon fill="#ffffb3" stroke="black" points="292.33,-84.8 175.67,-84.8 175.67,-48.8 292.33,-48.8 292.33,-84.8"/>
<text text-anchor="middle" x="234" y="-62.6" font-family="Times,serif" font-size="14.00">TodosComponent</text>
</g>
<!-- TodosComponent&#45;&gt;AppModule -->
<g id="edge4" class="edge">
<title>TodosComponent&#45;&gt;AppModule</title>
<path fill="none" stroke="black" d="M234,-84.82C234,-102.17 234,-125.8 234,-125.8 234,-125.8 325.96,-125.8 325.96,-125.8"/>
<polygon fill="black" stroke="black" points="325.96,-129.3 335.96,-125.8 325.96,-122.3 325.96,-129.3"/>
</g>
<!-- AppComponent  -->
<g id="node7" class="node">
<title>AppComponent </title>
<polygon fill="#80b1d3" stroke="black" points="432.44,-214.8 323.56,-214.8 323.56,-178.8 432.44,-178.8 432.44,-214.8"/>
<text text-anchor="middle" x="378" y="-192.6" font-family="Times,serif" font-size="14.00">AppComponent </text>
</g>
<!-- AppModule&#45;&gt;AppComponent  -->
<g id="edge6" class="edge">
<title>AppModule&#45;&gt;AppComponent </title>
<path fill="none" stroke="black" stroke-dasharray="1,5" d="M378,-149.91C378,-149.91 378,-168.79 378,-168.79"/>
<polygon fill="black" stroke="black" points="374.5,-168.79 378,-178.79 381.5,-168.79 374.5,-168.79"/>
</g>
<!-- AppRoutingModule -->
<g id="node6" class="node">
<title>AppRoutingModule</title>
<polygon fill="#8dd3c7" stroke="black" points="152.27,-84.8 149.27,-88.8 128.27,-88.8 125.27,-84.8 23.73,-84.8 23.73,-48.8 152.27,-48.8 152.27,-84.8"/>
<text text-anchor="middle" x="88" y="-62.6" font-family="Times,serif" font-size="14.00">AppRoutingModule</text>
</g>
<!-- AppRoutingModule&#45;&gt;AppModule -->
<g id="edge5" class="edge">
<title>AppRoutingModule&#45;&gt;AppModule</title>
<path fill="none" stroke="black" d="M88,-85.08C88,-106.12 88,-137.8 88,-137.8 88,-137.8 326.14,-137.8 326.14,-137.8"/>
<polygon fill="black" stroke="black" points="326.14,-141.3 336.14,-137.8 326.14,-134.3 326.14,-141.3"/>
</g>
</g>
</svg>
